<?xml version="1.0" encoding="utf-8"?>
<svg version="1.1" id="Calque_1" 
	xmlns:x="&ns_extend;" 
	xmlns:i="&ns_ai;" 
	xmlns:graph="&ns_graphs;" 
	xmlns="http://www.w3.org/2000/svg" 
	xmlns:xlink="http://www.w3.org/1999/xlink" x="0px" y="0px" width="671px" height="524.02px" viewBox="0 0 671 524.02" enable-background="new 0 0 671 524.02" xml:space="preserve">
	<switch>
		<g i:extraneous="self">
			<g>
				<path d="M148.896,145.914c0,26.752-17.15,40.134-51.417,40.134H29.322v-26.031h68.156
				c9.676,0,16.395-1.088,20.118-3.245c3.73-2.191,5.597-5.789,5.597-10.857c0-9.404-7.097-14.126-21.228-14.126H74.019
				c-33.523,0-50.296-12.626-50.296-37.955c0-13.727,5.6-23.862,16.773-30.375c8.188-4.347,18.241-6.503,30.181-6.503h115.291
				l-19.985,24.951H70.676c-14.184,0-21.238,3.979-21.238,11.927c0,5.788,2.944,9.413,8.919,10.856
				c2.243,0.724,7.453,1.079,15.662,1.079h27.946c14.131,0,25.694,3.625,34.646,10.845
				C144.796,123.131,148.896,132.897,148.896,145.914"/>
				<polygon points="224.872,187.543 196.915,187.543 157.601,56.955 185.374,56.317 			"/>
				<path d="M359.019,167.619c0,20.96-4.855,35.795-14.552,44.467c-8.931,9.393-23.825,14.105-44.708,14.105H245
				v-26.029h54.759c10.442,0,18.261-1.802,23.472-5.436c4.486-3.631,6.719-10.134,6.719-19.518H298.66
				c-38.011,0-56.994-18.438-56.994-55.335V56.955h25.692v62.919c0,12.3,2.6,20.616,7.83,24.949
				c4.467,2.89,12.297,4.337,23.472,4.337h33.521V56.955h26.837V167.619z"/>
				<path d="M517.723,120.965c0,19.525-7.127,36.171-21.247,49.902c-14.164,13.726-31.305,20.614-51.432,20.614
				c-20.104,0-37.252-6.889-51.381-20.614c-13.429-13.731-20.14-30.377-20.14-49.902c0-19.538,6.711-36.158,20.14-49.906
				c14.129-13.737,31.276-20.615,51.381-20.615c20.127,0,37.268,6.878,51.432,20.615
				C510.596,84.807,517.723,101.427,517.723,120.965 M492.009,120.965c0-12.285-4.864-22.787-14.536-31.468
				c-8.943-8.68-19.752-13.025-32.429-13.025c-12.658,0-23.444,4.346-32.396,13.025c-8.946,8.681-13.41,19.183-13.41,31.468
				c0,12.3,4.464,22.783,13.41,31.461c8.952,8.657,19.738,13.006,32.396,13.006c12.677,0,23.485-4.349,32.429-13.006
				C487.145,143.748,492.009,133.265,492.009,120.965"/>
				<path d="M656.27,186.048h-58.096c-43.963,0-65.946-20.963-65.946-62.917V56.955h25.727v66.176
				c0,15.193,4.066,25.67,12.265,31.449c5.966,3.638,15.281,5.437,27.955,5.437h32.399V56.955h25.696V186.048z"/>
				<path d="M185.967,23.584c0,11.489-9.588,20.786-21.421,20.786c-11.821,0-21.399-9.297-21.399-20.786
				c0-11.453,9.578-20.761,21.399-20.761C176.379,2.823,185.967,12.131,185.967,23.584"/>
			</g>
			<text transform="matrix(1.0301 0 0 1 260.3457 334.7559)" font-family="'CenturyGothic'" font-size="103.4247">supplier</text>
			<g>

				<text transform="matrix(1.0301 0 0 1 265.7471 486.543)" font-family="'MicrosoftJhengHeiUIRegular'" font-size="124.8637">供货商</text>
			</g>
			<path d="M117.971,284.521c-57.251,0-103.695,45.085-103.695,100.662c0,55.601,46.444,100.676,103.695,100.676
			c57.273,0,103.687-45.075,103.687-100.676C221.657,329.606,175.244,284.521,117.971,284.521z M51.993,360.444l28.854-31.356h4.616
			l-19.026,31.356v7.395h10.183v-7.395l19.242-31.356h3.452l-9.61,30.621v8.13h9.61v-7.395l9.619-31.356h2.699v32.109v6.642h13.028
			l-1.11-38.751h4.237l7.691,27.116v11.635h11.919v-7.006l-8.467-31.745h5.017l16.522,31.745v7.006h10.409v-7.006l-19.62-31.745
			h5.007l27.685,31.356v22.889h-5.435v38.365H57.442v-38.365h-5.449V360.444z M198.674,441.296H37.272
			c0-8.103,6.784-14.678,15.121-14.678H183.54C191.898,426.618,198.674,433.193,198.674,441.296z"/>
		</g>
	</switch>
</svg>
