t<svg xmlns="http://www.w3.org/2000/svg" viewBox="0 0 409.02 148.79">
    <defs>
        <style>
        .cls-1 {
            <!-- fill: #282525; -->
        }
        </style>
    </defs>
    <title>siyou</title>
    <g id="Calque_2" data-name="Calque 2">
        <g id="图层_1" data-name="图层 1">
            <path class="cls-1" d="M80.94,95.32q0,26.75-33.24,26.73H3.61V104.71H47.7q9.38,0,13-2.17t3.62-7.22c0-6.26-4.59-9.4-13.73-9.4H32.52Q0,85.92,0,60.63,0,46.9,10.84,40.39q8-4.34,19.51-4.33H104.9L92,52.68H30.35q-13.74,0-13.73,8,0,5.79,5.78,7.22c1.45.49,4.81.73,10.12.73H50.59q13.71,0,22.4,7.22Q80.93,82.31,80.94,95.32Z"/>
            <path class="cls-1" d="M130.06,123.05H112l-25.42-87,18-.42Z"/>
            <path class="cls-1" d="M216.8,109.77q0,21-9.4,29.63-8.67,9.38-28.9,9.39H143.09V131.45H178.5q10.11,0,15.17-3.61,4.34-3.63,4.34-13H177.77q-36.86,0-36.85-36.86V36.06h16.62V78q0,12.3,5.06,16.62,4.34,2.89,15.17,2.89h21.68V36.06H216.8Z"/>
            <path class="cls-1" d="M319.41,78.69a45.3,45.3,0,0,1-13.73,33.25,47.1,47.1,0,0,1-66.48,0q-13-13.72-13-33.25t13-33.24a47.1,47.1,0,0,1,66.48,0A45.31,45.31,0,0,1,319.41,78.69Zm-16.62,0a27.53,27.53,0,0,0-9.39-20.95,29.63,29.63,0,0,0-50.59,20.95,29.64,29.64,0,0,0,50.59,21A27.52,27.52,0,0,0,302.79,78.69Z"/>
            <path class="cls-1" d="M409,122.05H371.45q-42.66,0-42.64-41.91V36.06h16.62V80.14q0,15.18,7.95,21,5.78,3.62,18.07,3.61H392.4V36.06H409Z"/>
            <circle class="cls-1" cx="91.06" cy="13.84" r="13.84"/>
        </g>
    </g>
</svg>